0
SECTION
2
HEADER
9
$INSUNITS
70
4
0
ENDSEC
0
SECTION
2
TABLES
0
TABLE
2
LTYPE
0
LTYPE
72
65
70
64
2
CONTINUOUS
3
______
73
0
40
0
0
ENDTAB
0
TABLE
2
LAYER
0
ENDTAB
0
ENDSEC
0
SECTION
2
ENTITIES
0
LINE
8
0
10
3.025
20
-78.725
11
16.025
21
-78.725
0
LINE
8
0
10
3.025
20
-92.725
11
16.025
21
-92.725
0
LINE
8
0
10
2.525
20
-79.225
11
2.525
21
-92.225
0
LINE
8
0
10
16.525
20
-79.225
11
16.525
21
-92.225
0
ARC
8
0
10
3.025
20
-79.225
40
0.5
50
90
51
180
0
ARC
8
0
10
16.025
20
-79.225
40
0.5
50
0
51
90
0
ARC
8
0
10
3.025
20
-92.225
40
0.5
50
180
51
270
0
ARC
8
0
10
16.025
20
-92.225
40
0.5
50
270
51
0
0
LINE
8
0
10
22.075
20
-78.725
11
35.075
21
-78.725
0
LINE
8
0
10
22.075
20
-92.725
11
35.075
21
-92.725
0
LINE
8
0
10
21.575
20
-79.225
11
21.575
21
-92.225
0
LINE
8
0
10
35.575
20
-79.225
11
35.575
21
-92.225
0
ARC
8
0
10
22.075
20
-79.225
40
0.5
50
90
51
180
0
ARC
8
0
10
35.075
20
-79.225
40
0.5
50
0
51
90
0
ARC
8
0
10
22.075
20
-92.225
40
0.5
50
180
51
270
0
ARC
8
0
10
35.075
20
-92.225
40
0.5
50
270
51
0
0
LINE
8
0
10
41.125
20
-78.725
11
54.125
21
-78.725
0
LINE
8
0
10
41.125
20
-92.725
11
54.125
21
-92.725
0
LINE
8
0
10
40.625
20
-79.225
11
40.625
21
-92.225
0
LINE
8
0
10
54.625
20
-79.225
11
54.625
21
-92.225
0
ARC
8
0
10
41.125
20
-79.225
40
0.5
50
90
51
180
0
ARC
8
0
10
54.125
20
-79.225
40
0.5
50
0
51
90
0
ARC
8
0
10
41.125
20
-92.225
40
0.5
50
180
51
270
0
ARC
8
0
10
54.125
20
-92.225
40
0.5
50
270
51
0
0
LINE
8
0
10
60.175
20
-78.725
11
73.175
21
-78.725
0
LINE
8
0
10
60.175
20
-92.725
11
73.175
21
-92.725
0
LINE
8
0
10
59.675
20
-79.225
11
59.675
21
-92.225
0
LINE
8
0
10
73.675
20
-79.225
11
73.675
21
-92.225
0
ARC
8
0
10
60.175
20
-79.225
40
0.5
50
90
51
180
0
ARC
8
0
10
73.175
20
-79.225
40
0.5
50
0
51
90
0
ARC
8
0
10
60.175
20
-92.225
40
0.5
50
180
51
270
0
ARC
8
0
10
73.175
20
-92.225
40
0.5
50
270
51
0
0
LINE
8
0
10
10.16875
20
-97.775
11
23.16875
21
-97.775
0
LINE
8
0
10
10.16875
20
-111.775
11
23.16875
21
-111.775
0
LINE
8
0
10
9.66875
20
-98.275
11
9.66875
21
-111.275
0
LINE
8
0
10
23.66875
20
-98.275
11
23.66875
21
-111.275
0
ARC
8
0
10
10.16875
20
-98.275
40
0.5
50
90
51
180
0
ARC
8
0
10
23.16875
20
-98.275
40
0.5
50
0
51
90
0
ARC
8
0
10
10.16875
20
-111.275
40
0.5
50
180
51
270
0
ARC
8
0
10
23.16875
20
-111.275
40
0.5
50
270
51
0
0
LINE
8
0
10
29.21875
20
-97.775
11
42.21875
21
-97.775
0
LINE
8
0
10
29.21875
20
-111.775
11
42.21875
21
-111.775
0
LINE
8
0
10
28.71875
20
-98.275
11
28.71875
21
-111.275
0
LINE
8
0
10
42.71875
20
-98.275
11
42.71875
21
-111.275
0
ARC
8
0
10
29.21875
20
-98.275
40
0.5
50
90
51
180
0
ARC
8
0
10
42.21875
20
-98.275
40
0.5
50
0
51
90
0
ARC
8
0
10
29.21875
20
-111.275
40
0.5
50
180
51
270
0
ARC
8
0
10
42.21875
20
-111.275
40
0.5
50
270
51
0
0
LINE
8
0
10
48.26875
20
-97.775
11
61.26875
21
-97.775
0
LINE
8
0
10
48.26875
20
-111.775
11
61.26875
21
-111.775
0
LINE
8
0
10
47.76875
20
-98.275
11
47.76875
21
-111.275
0
LINE
8
0
10
61.76875
20
-98.275
11
61.76875
21
-111.275
0
ARC
8
0
10
48.26875
20
-98.275
40
0.5
50
90
51
180
0
ARC
8
0
10
61.26875
20
-98.275
40
0.5
50
0
51
90
0
ARC
8
0
10
48.26875
20
-111.275
40
0.5
50
180
51
270
0
ARC
8
0
10
61.26875
20
-111.275
40
0.5
50
270
51
0
0
LINE
8
0
10
67.31875
20
-97.775
11
80.31875
21
-97.775
0
LINE
8
0
10
67.31875
20
-111.775
11
80.31875
21
-111.775
0
LINE
8
0
10
66.81875
20
-98.275
11
66.81875
21
-111.275
0
LINE
8
0
10
80.81875
20
-98.275
11
80.81875
21
-111.275
0
ARC
8
0
10
67.31875
20
-98.275
40
0.5
50
90
51
180
0
ARC
8
0
10
80.31875
20
-98.275
40
0.5
50
0
51
90
0
ARC
8
0
10
67.31875
20
-111.275
40
0.5
50
180
51
270
0
ARC
8
0
10
80.31875
20
-111.275
40
0.5
50
270
51
0
0
LINE
8
0
10
0
20
-114.3
11
83.34375
21
-114.3
0
LINE
8
0
10
0
20
-76.2
11
83.34375
21
-76.2
0
LINE
8
0
10
0
20
-114.3
11
0
21
-76.2
0
LINE
8
0
10
83.34375
20
-114.3
11
83.34375
21
-76.2
0
ENDSEC
0
EOF